<svg width="95.25mm" height="66.675mm" viewBox="0 0 95.25 66.675" xmlns="http://www.w3.org/2000/svg"><g id="svgGroup" stroke-linecap="round" fill-rule="evenodd" font-size="9pt" stroke="#000" stroke-width="0.25mm" fill="none" style="stroke:#000;stroke-width:0.25mm;fill:none"><path d="M 0 66.675 L 95.25 66.675 L 95.25 0 L 0 0 L 0 66.675 Z M 22.075 12.05 L 35.075 12.05 A 0.5 0.5 0 0 1 35.575 12.55 L 35.575 25.55 A 0.5 0.5 0 0 1 35.075 26.05 L 22.075 26.05 A 0.5 0.5 0 0 1 21.575 25.55 L 21.575 12.55 A 0.5 0.5 0 0 1 22.075 12.05 Z M 41.125 21.575 L 54.125 21.575 A 0.5 0.5 0 0 1 54.625 22.075 L 54.625 35.075 A 0.5 0.5 0 0 1 54.125 35.575 L 41.125 35.575 A 0.5 0.5 0 0 1 40.625 35.075 L 40.625 22.075 A 0.5 0.5 0 0 1 41.125 21.575 Z M 60.175 21.575 L 73.175 21.575 A 0.5 0.5 0 0 1 73.675 22.075 L 73.675 35.075 A 0.5 0.5 0 0 1 73.175 35.575 L 60.175 35.575 A 0.5 0.5 0 0 1 59.675 35.075 L 59.675 22.075 A 0.5 0.5 0 0 1 60.175 21.575 Z M 79.225 21.575 L 92.225 21.575 A 0.5 0.5 0 0 1 92.725 22.075 L 92.725 35.075 A 0.5 0.5 0 0 1 92.225 35.575 L 79.225 35.575 A 0.5 0.5 0 0 1 78.725 35.075 L 78.725 22.075 A 0.5 0.5 0 0 1 79.225 21.575 Z M 22.075 31.1 L 35.075 31.1 A 0.5 0.5 0 0 1 35.575 31.6 L 35.575 44.6 A 0.5 0.5 0 0 1 35.075 45.1 L 22.075 45.1 A 0.5 0.5 0 0 1 21.575 44.6 L 21.575 31.6 A 0.5 0.5 0 0 1 22.075 31.1 Z M 22.075 50.15 L 35.075 50.15 A 0.5 0.5 0 0 1 35.575 50.65 L 35.575 63.65 A 0.5 0.5 0 0 1 35.075 64.15 L 22.075 64.15 A 0.5 0.5 0 0 1 21.575 63.65 L 21.575 50.65 A 0.5 0.5 0 0 1 22.075 50.15 Z M 41.125 40.625 L 54.125 40.625 A 0.5 0.5 0 0 1 54.625 41.125 L 54.625 54.125 A 0.5 0.5 0 0 1 54.125 54.625 L 41.125 54.625 A 0.5 0.5 0 0 1 40.625 54.125 L 40.625 41.125 A 0.5 0.5 0 0 1 41.125 40.625 Z M 60.175 40.625 L 73.175 40.625 A 0.5 0.5 0 0 1 73.675 41.125 L 73.675 54.125 A 0.5 0.5 0 0 1 73.175 54.625 L 60.175 54.625 A 0.5 0.5 0 0 1 59.675 54.125 L 59.675 41.125 A 0.5 0.5 0 0 1 60.175 40.625 Z M 79.225 40.625 L 92.225 40.625 A 0.5 0.5 0 0 1 92.725 41.125 L 92.725 54.125 A 0.5 0.5 0 0 1 92.225 54.625 L 79.225 54.625 A 0.5 0.5 0 0 1 78.725 54.125 L 78.725 41.125 A 0.5 0.5 0 0 1 79.225 40.625 Z M 41.125 2.525 L 54.125 2.525 A 0.5 0.5 0 0 1 54.625 3.025 L 54.625 16.025 A 0.5 0.5 0 0 1 54.125 16.525 L 41.125 16.525 A 0.5 0.5 0 0 1 40.625 16.025 L 40.625 3.025 A 0.5 0.5 0 0 1 41.125 2.525 Z M 60.175 2.525 L 73.175 2.525 A 0.5 0.5 0 0 1 73.675 3.025 L 73.675 16.025 A 0.5 0.5 0 0 1 73.175 16.525 L 60.175 16.525 A 0.5 0.5 0 0 1 59.675 16.025 L 59.675 3.025 A 0.5 0.5 0 0 1 60.175 2.525 Z M 79.225 2.525 L 92.225 2.525 A 0.5 0.5 0 0 1 92.725 3.025 L 92.725 16.025 A 0.5 0.5 0 0 1 92.225 16.525 L 79.225 16.525 A 0.5 0.5 0 0 1 78.725 16.025 L 78.725 3.025 A 0.5 0.5 0 0 1 79.225 2.525 Z M 3.025 12.05 L 16.025 12.05 A 0.5 0.5 0 0 1 16.525 12.55 L 16.525 25.55 A 0.5 0.5 0 0 1 16.025 26.05 L 3.025 26.05 A 0.5 0.5 0 0 1 2.525 25.55 L 2.525 12.55 A 0.5 0.5 0 0 1 3.025 12.05 Z M 3.025 31.1 L 16.025 31.1 A 0.5 0.5 0 0 1 16.525 31.6 L 16.525 44.6 A 0.5 0.5 0 0 1 16.025 45.1 L 3.025 45.1 A 0.5 0.5 0 0 1 2.525 44.6 L 2.525 31.6 A 0.5 0.5 0 0 1 3.025 31.1 Z M 3.025 50.15 L 16.025 50.15 A 0.5 0.5 0 0 1 16.525 50.65 L 16.525 63.65 A 0.5 0.5 0 0 1 16.025 64.15 L 3.025 64.15 A 0.5 0.5 0 0 1 2.525 63.65 L 2.525 50.65 A 0.5 0.5 0 0 1 3.025 50.15 Z" vector-effect="non-scaling-stroke"/></g></svg>